<svg xmlns="http://www.w3.org/2000/svg" xmlns:xlink="http://www.w3.org/1999/xlink" width="500" zoomAndPan="magnify" viewBox="0 0 375 374.999991" height="500" preserveAspectRatio="xMidYMid meet" version="1.0"><path fill="#000000" d="M 244.550781 66.179688 C 222.894531 66.667969 194.371094 80.035156 188.425781 102.527344 C 177.09375 85.628906 166.917969 62.207031 144.414062 60.53125 C 116.714844 58.449219 94.128906 77.273438 84.523438 102.109375 C 74.652344 127.71875 82.390625 152.039062 99.761719 171.867188 C 108.992188 182.390625 120.074219 191.179688 130.535156 200.382812 C 143.449219 211.71875 151.867188 226.25 161.972656 239.917969 C 171.902344 253.21875 180.15625 267.679688 190.386719 280.757812 C 191.351562 282.023438 193.351562 281.457031 194.082031 280.289062 C 199.167969 272.214844 202.335938 263.355469 206.148438 254.660156 C 211.003906 243.640625 219.003906 234.339844 226.675781 225.199219 C 239.304688 210.113281 252.597656 196.351562 266.734375 182.726562 C 287.636719 162.582031 300.234375 135.238281 296.148438 105.808594 C 292.46875 79.292969 269.90625 65.632812 244.550781 66.179688 " fill-opacity="1" fill-rule="nonzero"/><path fill="#ff0000" d="M 118.433594 177.171875 C 118.792969 176.871094 116.449219 173.679688 112.746094 168.59375 C 109.050781 163.488281 103.988281 156.40625 99.726562 147.921875 C 97.625 143.667969 96 139.449219 94.757812 135.542969 C 94.476562 134.554688 94.1875 133.589844 93.90625 132.648438 C 93.664062 131.71875 93.46875 130.796875 93.246094 129.90625 C 92.773438 128.128906 92.550781 126.453125 92.246094 124.898438 C 91.246094 118.734375 91.097656 114.804688 90.585938 114.804688 C 90.226562 114.792969 89.566406 118.734375 89.996094 125.183594 C 90.167969 126.789062 90.285156 128.566406 90.65625 130.417969 C 90.832031 131.359375 90.980469 132.324219 91.191406 133.3125 C 91.433594 134.3125 91.679688 135.3125 91.945312 136.355469 C 93.074219 140.472656 94.699219 144.914062 96.871094 149.332031 C 101.308594 158.164062 106.800781 165.195312 110.976562 170.011719 C 115.207031 174.8125 118.109375 177.4375 118.433594 177.171875 Z M 252.273438 184.015625 C 254.066406 182.222656 254.976562 181.125 254.839844 180.957031 C 254.710938 180.785156 253.519531 181.539062 251.484375 183.074219 C 250.460938 183.84375 249.21875 184.808594 247.800781 185.945312 C 246.398438 187.074219 244.738281 188.328125 243.097656 189.910156 C 236.304688 196.015625 227.539062 205.148438 218.855469 216.050781 C 210.28125 227.015625 203.242188 237.441406 198.367188 245.117188 C 193.523438 252.808594 190.761719 257.71875 191.121094 257.96875 C 191.5 258.214844 194.917969 253.730469 200.222656 246.382812 C 205.566406 239.046875 212.851562 228.886719 221.371094 218.015625 C 229.957031 207.242188 238.324219 198 244.667969 191.558594 C 246.175781 189.875 247.707031 188.527344 248.988281 187.261719 C 250.289062 186.015625 251.390625 184.921875 252.273438 184.015625 Z M 287.160156 131.871094 C 288.296875 124.882812 288.148438 118.082031 287.261719 112.027344 C 286.996094 110.515625 286.707031 109.0625 286.449219 107.625 C 286.125 106.210938 285.671875 104.886719 285.3125 103.578125 C 284.652344 100.9375 283.539062 98.648438 282.6875 96.511719 C 282.273438 95.4375 281.769531 94.453125 281.257812 93.566406 C 280.746094 92.660156 280.273438 91.808594 279.84375 90.996094 C 279.007812 89.371094 278.042969 88.140625 277.289062 87.101562 C 275.765625 85.042969 274.859375 83.964844 274.664062 84.09375 C 274.476562 84.230469 275.058594 85.535156 276.234375 87.742188 C 276.800781 88.859375 277.613281 90.164062 278.273438 91.824219 C 278.632812 92.636719 279.007812 93.507812 279.425781 94.414062 C 279.855469 95.324219 280.273438 96.308594 280.613281 97.367188 C 281.292969 99.484375 282.257812 101.726562 282.769531 104.277344 C 283.070312 105.566406 283.464844 106.851562 283.710938 108.214844 C 283.917969 109.574219 284.140625 110.992188 284.351562 112.421875 C 285.035156 118.230469 285.089844 124.6875 284.011719 131.359375 C 282.875 138.019531 280.785156 144.144531 278.390625 149.484375 C 277.742188 150.792969 277.101562 152.074219 276.5 153.328125 C 275.894531 154.570312 275.117188 155.703125 274.476562 156.839844 C 273.210938 159.128906 271.761719 161.09375 270.496094 162.921875 C 269.285156 164.8125 267.890625 166.253906 266.828125 167.671875 C 265.757812 169.089844 264.699219 170.21875 263.851562 171.160156 C 262.148438 173.054688 261.296875 174.191406 261.449219 174.335938 C 261.601562 174.488281 262.75 173.679688 264.699219 172.054688 C 265.675781 171.253906 266.871094 170.253906 268.113281 168.894531 C 269.34375 167.554688 270.910156 166.136719 272.269531 164.304688 C 273.703125 162.488281 275.3125 160.558594 276.722656 158.234375 C 277.441406 157.082031 278.273438 155.953125 278.949219 154.6875 C 279.632812 153.398438 280.308594 152.097656 281.027344 150.75 C 283.675781 145.25 285.960938 138.867188 287.160156 131.871094 Z M 254.164062 71.261719 C 281.597656 73.679688 293.71875 97.402344 292.015625 122.59375 C 291.144531 135.75 286.542969 148.980469 279.75 160.1875 C 271.402344 173.941406 257.953125 184.203125 246.628906 195.375 C 235.039062 206.8125 224.3125 219.9375 214.402344 232.851562 C 204.359375 245.964844 199.921875 260.972656 191.816406 274.898438 C 182.722656 262.804688 175.109375 249.671875 166.027344 237.535156 C 159.3125 228.433594 153.378906 218.789062 146.339844 209.90625 C 138.882812 200.511719 129.304688 193.105469 120.339844 185.246094 C 101.398438 168.613281 83.726562 149.65625 84.957031 122.824219 C 86.277344 93.847656 107.253906 68.503906 136.445312 65.179688 C 163.992188 62.042969 174.144531 91.824219 187.707031 109.667969 C 189.136719 111.539062 191.910156 110.933594 192.105469 108.480469 C 194.253906 81.070312 231.148438 69.226562 254.164062 71.261719 " fill-opacity="1" fill-rule="nonzero"/><path fill="#000000" d="M 292.015625 122.59375 C 293.71875 97.402344 281.597656 73.679688 254.164062 71.261719 C 231.148438 69.226562 194.253906 81.070312 192.105469 108.480469 C 191.910156 110.933594 189.136719 111.539062 187.707031 109.667969 C 174.144531 91.824219 163.992188 62.042969 136.445312 65.179688 C 107.253906 68.503906 86.277344 93.847656 84.957031 122.824219 C 83.726562 149.65625 101.398438 168.613281 120.339844 185.246094 C 129.304688 193.105469 138.882812 200.511719 146.339844 209.90625 C 153.378906 218.789062 159.3125 228.433594 166.027344 237.535156 C 175.109375 249.671875 182.722656 262.804688 191.816406 274.898438 C 199.921875 260.972656 204.359375 245.964844 214.402344 232.851562 C 224.3125 219.9375 235.039062 206.8125 246.628906 195.375 C 257.953125 184.203125 271.402344 173.941406 279.75 160.1875 C 286.542969 148.980469 291.144531 135.75 292.015625 122.59375 Z M 296.148438 105.808594 C 300.234375 135.238281 287.636719 162.582031 266.734375 182.726562 C 252.597656 196.351562 239.304688 210.113281 226.675781 225.199219 C 219.003906 234.339844 211.003906 243.640625 206.148438 254.660156 C 202.335938 263.355469 199.167969 272.214844 194.082031 280.289062 C 193.351562 281.457031 191.351562 282.023438 190.386719 280.757812 C 180.15625 267.679688 171.902344 253.21875 161.972656 239.917969 C 151.867188 226.25 143.449219 211.71875 130.535156 200.382812 C 120.074219 191.179688 108.992188 182.390625 99.761719 171.867188 C 82.390625 152.039062 74.652344 127.71875 84.523438 102.109375 C 94.128906 77.273438 116.714844 58.449219 144.414062 60.53125 C 166.917969 62.207031 177.09375 85.628906 188.425781 102.527344 C 194.371094 80.035156 222.894531 66.667969 244.550781 66.179688 C 269.90625 65.632812 292.46875 79.292969 296.148438 105.808594 " fill-opacity="1" fill-rule="nonzero"/><path fill="#000000" d="M 287.261719 112.027344 C 288.148438 118.082031 288.296875 124.882812 287.160156 131.871094 C 285.960938 138.867188 283.675781 145.25 281.027344 150.75 C 280.308594 152.097656 279.632812 153.398438 278.949219 154.6875 C 278.273438 155.953125 277.441406 157.082031 276.722656 158.234375 C 275.3125 160.558594 273.703125 162.488281 272.269531 164.304688 C 270.910156 166.136719 269.34375 167.554688 268.113281 168.894531 C 266.871094 170.253906 265.675781 171.253906 264.699219 172.054688 C 262.75 173.679688 261.601562 174.488281 261.449219 174.335938 C 261.296875 174.191406 262.148438 173.054688 263.851562 171.160156 C 264.699219 170.21875 265.757812 169.089844 266.828125 167.671875 C 267.890625 166.253906 269.285156 164.8125 270.496094 162.921875 C 271.761719 161.09375 273.210938 159.128906 274.476562 156.839844 C 275.117188 155.703125 275.894531 154.570312 276.5 153.328125 C 277.101562 152.074219 277.742188 150.792969 278.390625 149.484375 C 280.785156 144.144531 282.875 138.019531 284.011719 131.359375 C 285.089844 124.6875 285.035156 118.230469 284.351562 112.421875 C 284.140625 110.992188 283.917969 109.574219 283.710938 108.214844 C 283.464844 106.851562 283.070312 105.566406 282.769531 104.277344 C 282.257812 101.726562 281.292969 99.484375 280.613281 97.367188 C 280.273438 96.308594 279.855469 95.324219 279.425781 94.414062 C 279.007812 93.507812 278.632812 92.636719 278.273438 91.824219 C 277.613281 90.164062 276.800781 88.859375 276.234375 87.742188 C 275.058594 85.535156 274.476562 84.230469 274.664062 84.09375 C 274.859375 83.964844 275.765625 85.042969 277.289062 87.101562 C 278.042969 88.140625 279.007812 89.371094 279.84375 90.996094 C 280.273438 91.808594 280.746094 92.660156 281.257812 93.566406 C 281.769531 94.453125 282.273438 95.4375 282.6875 96.511719 C 283.539062 98.648438 284.652344 100.9375 285.3125 103.578125 C 285.671875 104.886719 286.125 106.210938 286.449219 107.625 C 286.707031 109.0625 286.996094 110.515625 287.261719 112.027344 " fill-opacity="1" fill-rule="nonzero"/><path fill="#000000" d="M 254.839844 180.957031 C 254.976562 181.125 254.066406 182.222656 252.273438 184.015625 C 251.390625 184.921875 250.289062 186.015625 248.988281 187.261719 C 247.707031 188.527344 246.175781 189.875 244.667969 191.558594 C 238.324219 198 229.957031 207.242188 221.371094 218.015625 C 212.851562 228.886719 205.566406 239.046875 200.222656 246.382812 C 194.917969 253.730469 191.5 258.214844 191.121094 257.96875 C 190.761719 257.71875 193.523438 252.808594 198.367188 245.117188 C 203.242188 237.441406 210.28125 227.015625 218.855469 216.050781 C 227.539062 205.148438 236.304688 196.015625 243.097656 189.910156 C 244.738281 188.328125 246.398438 187.074219 247.800781 185.945312 C 249.21875 184.808594 250.460938 183.84375 251.484375 183.074219 C 253.519531 181.539062 254.710938 180.785156 254.839844 180.957031 " fill-opacity="1" fill-rule="nonzero"/><path fill="#000000" d="M 112.746094 168.59375 C 116.449219 173.679688 118.792969 176.871094 118.433594 177.171875 C 118.109375 177.4375 115.207031 174.8125 110.976562 170.011719 C 106.800781 165.195312 101.308594 158.164062 96.871094 149.332031 C 94.699219 144.914062 93.074219 140.472656 91.945312 136.355469 C 91.679688 135.3125 91.433594 134.3125 91.191406 133.3125 C 90.980469 132.324219 90.832031 131.359375 90.65625 130.417969 C 90.285156 128.566406 90.167969 126.789062 89.996094 125.183594 C 89.566406 118.734375 90.226562 114.792969 90.585938 114.804688 C 91.097656 114.804688 91.246094 118.734375 92.246094 124.898438 C 92.550781 126.453125 92.773438 128.128906 93.246094 129.90625 C 93.46875 130.796875 93.664062 131.71875 93.90625 132.648438 C 94.1875 133.589844 94.476562 134.554688 94.757812 135.542969 C 96 139.449219 97.625 143.667969 99.726562 147.921875 C 103.988281 156.40625 109.050781 163.488281 112.746094 168.59375 " fill-opacity="1" fill-rule="nonzero"/></svg>